<svg xmlns="http://www.w3.org/2000/svg" width="400" height="531" viewBox="0 0 400 531">
                    <g fill="#FFF" fill-rule="evenodd">
                        <path d="M200 531c110.46 0 200-89.54 200-200s-89.54-200-200-200S0 220.54 0 331s89.54 200 200 200zm85.45-36.65a155 155 0 0 1-54.07 18.7c-11 1.59-22.27 2.94-33.37 2.68-38.33-.87-71.27-15-98.21-42.43-20.16-20.54-33-45.15-37.62-73.52-7.45-46.13 4.88-86.73 36.92-120.86a133.42 133.42 0 0 1 74.83-40.69 196.67 196.67 0 0 1 24.72-2.56c7.82-.44 13.13-4.84 13.07-11.76-.06-6.92-5.49-11.91-13.18-11.73-17.86.4-35.46 2.88-52.25 9.13C95 240.39 60.72 275.94 43.77 328a151.06 151.06 0 0 0-6.52 59.54c1 11.85 4.22 23.53 6.47 35.28.244.647.421 1.317.53 2 0 .59-.31 1.49-.74 1.68a2 2 0 0 1-1.74-.59 13.09 13.09 0 0 1-1.7-2.6c-12.18-21.69-20.39-44.8-23.13-69.54-5.7-51.31 7.08-97.64 39.38-138 28.38-35.52 65.39-57.31 110-66a177.91 177.91 0 0 1 55.43-1.77c42.127 5.073 78.257 22.503 108.39 52.29 27.64 27.34 44.84 60.41 51.75 98.78a183.28 183.28 0 0 1-22.6 125.45A6 6 0 0 1 355 427c-51.69.13-103.38.47-155.06-.05-26.72-.26-46.37-18.92-50.36-43.15a51.13 51.13 0 0 1 43.28-58.8c11.68-1.68 22.46.64 32.7 6.22 6.29 3.44 13.3 1.63 16.52-4.2 3.22-5.83 1.26-12.35-4.9-16-36.89-22-87.31-5.93-104.74 33.38-16.49 37.2-2.37 78.51 33.57 97.59a67.11 67.11 0 0 0 31.91 8.01c46.48-.053 92.963-.053 139.45 0h4.11c-3.38 3.75-6.17 7-9.11 10.09-10.21 10.8-10.24 10.78-25 10.78H199.83a92.2 92.2 0 0 1-57.91-19.74C120.54 434.64 108 412.72 105.06 386c-4.686-41.706 18.458-81.57 57-98.18a97.25 97.25 0 0 1 44.62-7.75c4.14.32 8.254.901 12.32 1.74 7.17 1.3 13.34-2.49 14.73-9.24 1.26-6.08-2.72-12.08-9.5-13.49a117.16 117.16 0 0 0-33.32-2.08c-21.37 1.69-40.9 8.33-58.36 20.63C105.07 297 88 323.21 82.73 356.55c-10.391 63.88 32.369 124.287 96.07 135.72a129.07 129.07 0 0 0 21.66 2c28.33.22 56.66.09 85 .09l-.01-.01z"></path>
                        <path fill-rule="nonzero" d="M271.59 348.44c-.65-.14-2.26 5.81-3.66 5.79-1.16 0 .91-3 .37-3.46a.26.26 0 0 0-.16-.06c-.58-.07-1.21 1.65-1.36 2a54.81 54.81 0 0 1-3.61 6.62 36.52 36.52 0 0 1-3.47 4.31 47.78 47.78 0 0 0-6.83 10.47c-.14.78-.34 1-.45 1-.13 0-.36 0-.76-.51-4.72-5.4-8.34-9.4-10-11.26a8 8 0 0 0-2.92-2.22 9.28 9.28 0 0 0-2.32-.6 13.42 13.42 0 0 0-4.88.21c-4.53 1-8.35 5-9 5.74a.19.19 0 0 1-.07.08l-1 .31c1-2-10.7-15.54-10.7-15.54l7.23-11.58c-40.86 5.85-71.18 82.19-60.68 78.8 10.5-3.39 33.53-37.71 33.53-37.71s3.57.42 11.89 3.12 16.26 2 19.83-1.74c3.57-3.74 12.82-5.85 12.82-5.85a31.54 31.54 0 0 1 1.83 9.22 30.89 30.89 0 0 1-.29 5.75 45.48 45.48 0 0 0-7.42 8.26c-2.33 3.34-5.74 9.24-9.69 13.8l-.42.47c-2.42 2.6-6.26 4.35-7.26 5.61-.74.92 2.18 0 2.53.49.35.49-2 .46-3.38 1.44s.56 1.15.56 1.15a10.54 10.54 0 0 0-1.57 2 .17.17 0 0 0 0 .12c.16.43 6.77-4.89 12.39-10.16 3.32-3.12 3.28-3.38 5.9-5.85a92.3 92.3 0 0 1 12.61-9.95l.85 1.67.31 1.76.66.75.49 1.33 1.28.71 1.43.62 1.41.14 1.4-.31 1.87.14 1.42-.33 1.7-.19-.84-1.48 1.25-1.19-.28-1.05 1.69-2.38-.61-.53.79-1.37-1.33-.35.12-1.44-.53-.22c-.69-1.2-1.39-2.39-2.08-3.58 5.83-12.79 9.3-20.89 10.87-25.34a18.68 18.68 0 0 1 3.34-6.62c1.91-2.27 3.36-2.63 4.54-4.95 1.48-2.88 1.07-5.97.66-6.06zm-63.78 6.87s7.17 17.89 9.32 19.16l-5.92 2.15s-.85 1.95-.64 2.19c.21.24-6.35-4.35-16.5-1.55l13.74-21.95z"></path>
                        <g fill-rule="nonzero" stroke="#FFF" stroke-linecap="round" stroke-linejoin="round" stroke-width=".56">
                            <path d="M236.54 348.77h16.12M355.94 406.53h-9.15M197.39 162.12h10.85M54.21 351.45h21.41M267.54 218.2h23.72M318 294.84h10.84M312.72 300.12h16.12M32.89 243.5H54.3M30.24 248.78h16.13"></path>
                        </g>
                        <path fill-rule="nonzero" d="M93.875 8.79c0 .796-.193 1.974-.58 3.532a154.934 154.934 0 0 1-1.46 5.397c-.585 2.039-1.218 4.254-1.897 6.644-.68 2.39-1.313 4.817-1.899 7.278-.586 2.46-1.072 4.88-1.459 7.26-.387 2.378-.58 4.587-.58 6.626 0 1.664.111 3.217.334 4.659.223 1.441.568 2.695 1.037 3.761.469 1.067 1.055 1.905 1.758 2.514.703.61 1.535.914 2.496.914.96 0 1.893-.281 2.795-.844.902-.562 1.775-1.336 2.62-2.32.843-.984 1.651-2.156 2.425-3.516a53.329 53.329 0 0 0 2.232-4.412 70.272 70.272 0 0 0 2.022-4.992A133.6 133.6 0 0 0 105.512 36c1.968-6.281 3.715-13.418 5.238-21.41.281-1.29.615-2.367 1.002-3.235.387-.867.85-1.558 1.389-2.074a4.544 4.544 0 0 1 1.88-1.09c.715-.21 1.541-.316 2.479-.316.89 0 1.623.082 2.197.246.574.164 1.032.387 1.371.668.34.281.58.621.721 1.02.14.398.211.843.211 1.336 0 .164-.094.85-.281 2.056l-.721 4.64c-.293 1.888-.61 4.026-.95 6.417a291.91 291.91 0 0 0-.948 7.365c-.293 2.52-.534 5.01-.721 7.47a89.834 89.834 0 0 0-.281 6.786c0 2.11.076 4.014.228 5.713.153 1.699.41 3.146.774 4.342.363 1.195.837 2.109 1.423 2.742.586.633 1.313.949 2.18.949 1.5 0 2.865-.586 4.096-1.758 1.23-1.172 2.355-2.736 3.375-4.693 1.02-1.957 1.933-4.225 2.742-6.803a96.686 96.686 0 0 0 2.145-8.086c.62-2.812 1.16-5.648 1.617-8.508a212.518 212.518 0 0 0 2.232-19.723c.07-1.195.287-2.156.65-2.882.364-.727.827-1.29 1.39-1.688a4.718 4.718 0 0 1 1.915-.79 12.358 12.358 0 0 1 2.197-.194c.586 0 1.12.064 1.6.193.48.13.897.352 1.248.668.352.317.621.739.809 1.266.187.527.281 1.201.281 2.021 0 2.274-.146 4.729-.44 7.366-.292 2.636-.656 5.279-1.09 7.927a218.35 218.35 0 0 1-1.406 7.735c-.503 2.508-.972 4.77-1.406 6.785-.433 2.016-.797 3.715-1.09 5.098-.293 1.382-.44 2.261-.44 2.636 0 .914.13 1.694.388 2.338.257.645.603 1.178 1.037 1.6.433.422.949.726 1.547.914a6.366 6.366 0 0 0 1.916.281c.68 0 1.377-.158 2.091-.474a8.37 8.37 0 0 0 2.057-1.319 10.844 10.844 0 0 0 1.81-2.021 12.367 12.367 0 0 0 1.39-2.62l.597 7.278c-1.734 1.992-3.522 3.562-5.361 4.71-1.84 1.15-3.569 1.723-5.186 1.723-.773 0-1.5-.123-2.18-.369a4.998 4.998 0 0 1-1.81-1.142c-.528-.516-.967-1.184-1.319-2.004-.351-.82-.597-1.793-.738-2.918-1.172 2.18-2.431 4.142-3.78 5.889-1.347 1.746-2.776 3.234-4.288 4.464-1.512 1.23-3.094 2.18-4.746 2.848a13.528 13.528 0 0 1-5.115 1.002c-2.227 0-4.12-.586-5.678-1.758-1.559-1.172-2.824-2.765-3.797-4.781-.973-2.016-1.682-4.383-2.127-7.102-.445-2.718-.668-5.613-.668-8.683 0-1.125.059-2.18.176-3.164.117-.985.21-1.864.281-2.637-.844 5.344-1.904 9.814-3.182 13.412-1.277 3.598-2.777 6.486-4.5 8.666-1.722 2.18-3.691 3.733-5.906 4.658-2.215.926-4.67 1.389-7.365 1.389-1.547 0-3.024-.51-4.43-1.53-1.406-1.019-2.642-2.536-3.709-4.552-1.066-2.016-1.922-4.541-2.566-7.576-.645-3.035-.967-6.58-.967-10.635 0-2.484.14-5.033.422-7.646a87.317 87.317 0 0 1 3.164-15.663 86.308 86.308 0 0 1 2.637-7.523c.586-1.36 1.172-2.42 1.757-3.182.586-.761 1.184-1.324 1.793-1.687.61-.363 1.225-.58 1.846-.65.621-.07 1.248-.106 1.881-.106.516 0 .984.035 1.406.105.422.07.78.217 1.073.44.292.223.515.539.667.95.153.41.229.966.229 1.67zm79.84 46.722c-.844.773-1.893 1.6-3.147 2.478a33.49 33.49 0 0 1-4.06 2.426 30.989 30.989 0 0 1-4.447 1.846c-1.512.492-2.948.738-4.307.738-1.219 0-2.244-.17-3.076-.51-.832-.34-1.506-.814-2.022-1.424-.515-.609-.885-1.353-1.107-2.232-.223-.879-.334-1.846-.334-2.9 0-1.477.17-3.194.51-5.15.34-1.958.755-3.985 1.248-6.083.492-2.097 1.013-4.19 1.564-6.275.55-2.086 1.037-4.008 1.46-5.766.163-.61.491-1.13.983-1.564a6.304 6.304 0 0 1 1.67-1.055 9.24 9.24 0 0 1 1.934-.598 9.642 9.642 0 0 1 1.81-.193c.985 0 1.653.182 2.004.545.352.363.528.85.528 1.459 0 .516-.117 1.26-.352 2.232a82.651 82.651 0 0 1-.879 3.305c-.351 1.23-.726 2.555-1.125 3.973a142.425 142.425 0 0 0-1.125 4.254 59.9 59.9 0 0 0-.879 4.148c-.234 1.348-.351 2.56-.351 3.639 0 1.054.117 1.892.351 2.513.235.621.715.932 1.442.932.844 0 1.781-.293 2.812-.879a25.078 25.078 0 0 0 3.13-2.127 72.21 72.21 0 0 0 3.093-2.584 94.013 94.013 0 0 1 2.672-2.285v7.137zM158 19.372c0-.54.117-1.15.352-1.829a5.7 5.7 0 0 1 1.142-1.916c.527-.598 1.23-1.102 2.11-1.512.878-.41 1.974-.615 3.287-.615.82 0 1.593.094 2.32.281.727.188 1.36.475 1.898.862.54.386.967.896 1.284 1.529.316.633.474 1.383.474 2.25 0 .797-.129 1.57-.387 2.32a5.4 5.4 0 0 1-1.23 2.004c-.563.586-1.271 1.06-2.127 1.424-.855.363-1.88.545-3.076.545-2.063 0-3.586-.486-4.57-1.46-.985-.972-1.477-2.267-1.477-3.884zm27.563 37.37c2.367 0 4.523-.234 6.468-.703 1.946-.469 3.71-1.101 5.291-1.898a22.344 22.344 0 0 0 4.29-2.795 28.172 28.172 0 0 0 3.462-3.428l.387 8.05c-.75.915-1.658 1.8-2.725 2.655a20.271 20.271 0 0 1-3.498 2.25 21.327 21.327 0 0 1-3.99 1.547c-1.394.387-2.771.58-4.13.58a3.4 3.4 0 0 1-.616-.07l-1.283-.246c-.61-.118-1.483-.276-2.62-.475-1.136-.2-2.677-.44-4.622-.72v.632c0 4.266-.358 8.139-1.073 11.62-.715 3.48-1.67 6.45-2.865 8.911-1.195 2.461-2.566 4.36-4.113 5.696-1.547 1.336-3.153 2.004-4.817 2.004-1.336 0-2.449-.329-3.34-.985-.89-.656-1.6-1.54-2.126-2.654-.528-1.113-.903-2.414-1.125-3.902a31.966 31.966 0 0 1-.334-4.729c0-.96.152-2.045.457-3.252a32.268 32.268 0 0 1 1.23-3.797 64.665 64.665 0 0 1 1.74-4.043 97.352 97.352 0 0 1 1.987-3.99c1.593-3 3.41-6.094 5.449-9.281.258-1.828.521-3.703.79-5.625.27-1.922.61-3.785 1.02-5.59.41-1.805.926-3.516 1.547-5.133.621-1.617 1.418-3.023 2.39-4.219a10.954 10.954 0 0 1 3.499-2.847c1.36-.703 3-1.055 4.922-1.055 1.43 0 2.765.193 4.008.58a8.45 8.45 0 0 1 3.27 1.88c.937.868 1.675 1.987 2.214 3.358.54 1.371.809 3.053.809 5.045 0 1.594-.235 3.135-.703 4.623-.47 1.489-1.202 2.912-2.198 4.272-.996 1.36-2.261 2.63-3.797 3.814-1.535 1.184-3.357 2.244-5.466 3.182l.21.738zm-4.43-3.55c1.406-.704 2.619-1.489 3.638-2.356a17.22 17.22 0 0 0 2.637-2.777 15.773 15.773 0 0 0 1.81-3.059 20.343 20.343 0 0 0 1.126-3.234c.117-.516.193-1.12.228-1.81a5.913 5.913 0 0 0-.21-1.952 3.574 3.574 0 0 0-.915-1.565c-.433-.433-1.037-.65-1.81-.65-.867 0-1.63.24-2.285.72-.657.481-1.225 1.132-1.706 1.952-.48.82-.878 1.793-1.195 2.918a30.703 30.703 0 0 0-.773 3.621c-.2 1.29-.34 2.63-.422 4.025a70.931 70.931 0 0 0-.123 4.166zm-12.235 25.312c0 .187.041.492.123.914.083.422.217.844.405 1.266.187.421.433.796.738 1.125.305.328.68.492 1.125.492.399 0 .727-.217.984-.65.258-.434.47-1.014.633-1.74.164-.727.281-1.548.352-2.462.07-.914.129-1.851.176-2.812.046-.961.076-1.899.087-2.813a48.18 48.18 0 0 1 .088-2.46c.07-1.266.123-2.339.159-3.218l.087-2.197c.024-.656.047-1.207.07-1.652-.445.773-.878 1.67-1.3 2.69-.422 1.019-.82 2.08-1.195 3.181a59.35 59.35 0 0 0-1.02 3.305 80.898 80.898 0 0 0-.79 3.076 55.72 55.72 0 0 0-.528 2.46c-.13.692-.194 1.19-.194 1.495zM213.125 63c-2.203 0-4.13-.398-5.783-1.195-1.653-.797-3.03-1.87-4.131-3.217-1.102-1.348-1.928-2.906-2.479-4.676a18.642 18.642 0 0 1-.826-5.572c0-1.313.13-2.701.387-4.166.258-1.465.65-2.9 1.178-4.307a22.538 22.538 0 0 1 1.986-4.025 15.999 15.999 0 0 1 2.795-3.375 12.902 12.902 0 0 1 3.586-2.32c1.324-.575 2.795-.862 4.412-.862 1.313 0 2.531.211 3.656.633a8.948 8.948 0 0 1 2.936 1.775 8.034 8.034 0 0 1 1.951 2.76c.469 1.078.703 2.285.703 3.621 0 1.453-.357 2.906-1.072 4.36-.715 1.453-1.705 2.824-2.97 4.113-1.267 1.289-2.772 2.437-4.518 3.445a24.15 24.15 0 0 1-5.678 2.356c.351.632.697 1.16 1.037 1.582.34.422.685.75 1.037.984.352.234.72.398 1.107.492.387.094.803.14 1.249.14 1.406 0 2.888-.28 4.447-.843a29.024 29.024 0 0 0 4.553-2.11 38.533 38.533 0 0 0 4.183-2.759c1.313-.996 2.426-1.94 3.34-2.83l4.535 4.71a46.448 46.448 0 0 1-6.574 5.661 48.765 48.765 0 0 1-3.252 2.074 29.466 29.466 0 0 1-3.656 1.81c-1.278.528-2.602.95-3.973 1.266-1.371.317-2.76.475-4.166.475zm-4.676-16.523c.844 0 1.764-.217 2.76-.65.996-.434 1.922-.991 2.777-1.67a11.668 11.668 0 0 0 2.162-2.216c.586-.796.88-1.57.88-2.32 0-1.055-.194-1.922-.58-2.601-.387-.68-.862-1.02-1.425-1.02-1.007 0-1.869.187-2.584.563a5.614 5.614 0 0 0-1.793 1.458 7.56 7.56 0 0 0-1.16 2.04c-.293.761-.515 1.529-.668 2.302a17.467 17.467 0 0 0-.298 2.25c-.047.727-.07 1.348-.07 1.864zm42.047-9.809c.68 1.36 1.19 2.795 1.53 4.307.34 1.511.51 2.959.51 4.341 0 1.383-.153 2.778-.458 4.184a21.515 21.515 0 0 1-1.318 4.078 19.797 19.797 0 0 1-2.11 3.692 15.021 15.021 0 0 1-2.847 2.988 13.482 13.482 0 0 1-3.498 2.004 11.055 11.055 0 0 1-4.043.738c-2.063 0-3.826-.451-5.291-1.354a11.277 11.277 0 0 1-3.604-3.533c-.937-1.453-1.623-3.093-2.056-4.922a23.988 23.988 0 0 1-.65-5.554c0-2.578.386-4.987 1.16-7.225.773-2.238 1.88-4.183 3.322-5.836 1.441-1.652 3.205-2.953 5.29-3.902 2.087-.95 4.43-1.424 7.032-1.424 2.226 0 4.312.346 6.258 1.037a23.775 23.775 0 0 1 5.466 2.777c1.7 1.16 3.282 2.49 4.747 3.99a60.443 60.443 0 0 1 4.095 4.641l-.668 4.957c-.633-.843-1.488-1.757-2.566-2.742a56.278 56.278 0 0 0-3.428-2.883 103.58 103.58 0 0 0-3.568-2.654c-1.172-.832-2.18-1.53-3.024-2.092l-.28.387zM239.633 56.25c.797 0 1.57-.404 2.32-1.213.75-.808 1.406-1.828 1.969-3.058.562-1.231 1.014-2.59 1.353-4.079.34-1.488.51-2.912.51-4.271 0-1.078-.082-2.08-.246-3.006-.164-.926-.41-1.728-.738-2.408-.328-.68-.75-1.219-1.266-1.617-.515-.399-1.137-.598-1.863-.598-.961 0-1.875.41-2.742 1.23-.868.82-1.63 1.87-2.285 3.147-.657 1.277-1.172 2.69-1.547 4.236-.375 1.547-.563 3.035-.563 4.465 0 .985.094 1.91.281 2.777.188.868.48 1.624.88 2.268.398.645.925 1.16 1.581 1.547.657.387 1.442.58 2.356.58zm46.265-24.715c0 .633-.07 1.494-.21 2.584a88.578 88.578 0 0 1-.545 3.586c-.223 1.3-.463 2.643-.721 4.025l-.72 3.868a109.687 109.687 0 0 0-.546 3.146c-.14.902-.21 1.53-.21 1.881 0 .656.011 1.26.034 1.81.024.551.094 1.032.211 1.442.118.41.3.727.545.95.246.222.604.333 1.073.333.515 0 1.142-.129 1.88-.387a17.922 17.922 0 0 0 2.356-1.037 34.52 34.52 0 0 0 5.027-3.216c.785-.61 1.5-1.213 2.145-1.811.644-.598 1.166-1.154 1.564-1.67 0 .774.006 1.477.018 2.11.012.632.017 1.236.017 1.81 0 .574.006 1.166.018 1.775.012.61.018 1.29.018 2.04a19.78 19.78 0 0 1-1.916 1.652 33.81 33.81 0 0 1-2.532 1.758 39.021 39.021 0 0 1-2.953 1.687 32.537 32.537 0 0 1-3.146 1.424c-1.055.41-2.098.738-3.13.984-1.03.246-1.991.37-2.882.37-.89 0-1.652-.176-2.285-.528a5.013 5.013 0 0 1-1.635-1.476c-.457-.633-.844-1.39-1.16-2.268a23.304 23.304 0 0 1-.826-2.936 29.326 29.326 0 0 1-2.672 3.041 22.154 22.154 0 0 1-2.865 2.409 14.03 14.03 0 0 1-2.954 1.6c-.996.386-1.962.58-2.9.58-.773 0-1.5-.13-2.18-.387-.68-.258-1.283-.692-1.81-1.301-.527-.61-.943-1.412-1.248-2.408-.305-.996-.457-2.233-.457-3.71 0-1.804.217-4.1.65-6.89.434-2.79.967-5.977 1.6-9.563a21.584 21.584 0 0 1 .791-3.375c.222-.703.498-1.417.826-2.144.328-.727.715-1.383 1.16-1.969a5.886 5.886 0 0 1 1.565-1.441 3.965 3.965 0 0 1 2.021-.598c1.242.047 2.133.205 2.672.475.539.27.809.603.809 1.002-.211 1.242-.44 2.625-.686 4.148a934.606 934.606 0 0 1-.756 4.606 705.323 705.323 0 0 0-.738 4.517 1261.56 1261.56 0 0 1-.633 3.92 227.252 227.252 0 0 0-.44 2.777 46.865 46.865 0 0 0-.158 1.09c0 .422.041.826.123 1.213.082.387.205.733.37 1.037.164.305.375.551.632.739.258.187.563.28.914.28.516 0 1.043-.134 1.582-.403a5.563 5.563 0 0 0 1.53-1.16c.48-.505.908-1.126 1.283-1.864.375-.738.656-1.576.844-2.514l3.48-17.859c.117-.562.592-1.037 1.424-1.424.832-.386 1.775-.58 2.83-.58 1.195 0 2.145.211 2.848.633.703.422 1.054.96 1.054 1.617zm36.774 23.59a398.896 398.896 0 0 1-6.012 3.445 83.931 83.931 0 0 1-4.693 2.461c-1.371.657-2.59 1.149-3.656 1.477-1.067.328-2.034.492-2.9.492-1.782 0-3.352-.54-4.712-1.617-1.36-1.078-2.496-2.631-3.41-4.658-.914-2.028-1.6-4.483-2.057-7.366-.457-2.882-.685-6.129-.685-9.738 0-1.406.058-2.906.176-4.5.117-1.594.28-3.176.492-4.746a23.08 23.08 0 0 1-1.635-.264 36.402 36.402 0 0 0-2.883-.51c-.668-.093-1.634-.21-2.9-.351-.563-.07-.996-.205-1.3-.404a1.9 1.9 0 0 1-.669-.703c-.14-.27-.223-.551-.246-.844a9.675 9.675 0 0 1-.035-.756c0-.469.228-.826.685-1.072.457-.246 1.043-.428 1.758-.545a15.96 15.96 0 0 1 2.356-.194 56.598 56.598 0 0 1 2.46.018c.786.023 1.489.041 2.11.053.621.011 1.049-.006 1.283-.053a79.45 79.45 0 0 1 2.408-9.193c.973-2.965 2.063-5.602 3.27-7.91 1.207-2.31 2.525-4.16 3.955-5.555 1.43-1.395 2.93-2.092 4.5-2.092 1.008 0 1.928.281 2.76.844.832.562 1.54 1.312 2.127 2.25.586.937 1.037 2.033 1.353 3.287.317 1.254.475 2.56.475 3.92 0 1.148-.164 2.361-.492 3.638a27.48 27.48 0 0 1-1.336 3.903 41.195 41.195 0 0 1-1.987 4.025 89.522 89.522 0 0 1-2.408 4.043c.211.024.563.041 1.055.053a200.39 200.39 0 0 1 3.797.14c.75.036 1.476.065 2.18.088.703.024 1.359.047 1.968.07.61.024 1.113.048 1.512.071.469.023.809.258 1.02.703.21.445.316 1.008.316 1.688 0 .82-.234 1.488-.703 2.004-.469.515-.985.773-1.547.773h-13.5a129.876 129.876 0 0 1-3.973 5.203 296.985 296.985 0 0 0-.246 4.29l-.07 1.88-.07 1.916c-.024.633-.042 1.242-.053 1.828a81.336 81.336 0 0 0-.018 1.617c0 1.266.117 2.332.352 3.2.234.867.574 1.576 1.02 2.127.445.55.99.949 1.634 1.195.645.246 1.365.369 2.162.369.492 0 1.108-.117 1.846-.352a20.392 20.392 0 0 0 2.426-.966 38.511 38.511 0 0 0 8.385-5.414 25.63 25.63 0 0 0 2.355-2.268v9zm-11.25-44.508c0-.258-.018-.545-.053-.861a3.252 3.252 0 0 0-.228-.897 1.685 1.685 0 0 0-.545-.703c-.246-.187-.592-.281-1.037-.281-.61 0-1.225.54-1.846 1.617-.621 1.078-1.219 2.455-1.793 4.131a68.066 68.066 0 0 0-1.617 5.537 229.5 229.5 0 0 0-1.389 5.871c.352.047.703.088 1.055.123.351.035.715.076 1.09.123.703-1.195 1.435-2.49 2.197-3.884a61.144 61.144 0 0 0 2.057-4.114 42.24 42.24 0 0 0 1.511-3.779c.399-1.172.598-2.133.598-2.883z"></path>
                    </g>
                </svg>